<?xml version="1.0" standalone="no"?>
<!DOCTYPE svg PUBLIC "-//W3C//DTD SVG 20010904//EN"
 "http://www.w3.org/TR/2001/REC-SVG-20010904/DTD/svg10.dtd">
<svg version="1.0" xmlns="http://www.w3.org/2000/svg"
 width="1000.000000pt" height="1000.000000pt" viewBox="0 0 1000.000000 1000.000000"
 preserveAspectRatio="xMidYMid meet">
<metadata>
Created by potrace 1.11, written by Peter Selinger 2001-2013
</metadata>
<g transform="translate(0.000000,1000.000000) scale(0.100000,-0.100000)"
fill="#000000" stroke="none">
<path d="M3849 8886 c-2 -2 -46 -7 -98 -11 -52 -3 -97 -8 -101 -10 -3 -2 -33
-6 -65 -10 -212 -23 -601 -139 -883 -264 -558 -246 -1115 -676 -1472 -1136
-30 -39 -58 -72 -61 -75 -16 -12 -181 -255 -237 -350 -35 -58 -67 -112 -72
-120 -64 -104 -187 -377 -249 -555 -65 -185 -144 -512 -149 -615 -1 -8 -4 -46
-9 -85 -10 -91 -10 -450 0 -540 66 -609 344 -1048 815 -1290 86 -44 240 -104
312 -121 341 -82 627 -87 1055 -19 71 12 339 83 410 110 39 14 78 28 88 30 79
18 403 176 572 279 285 172 511 353 781 621 210 209 333 353 512 600 40 55 79
107 86 115 7 9 15 24 19 34 4 11 9 17 11 15 2 -2 7 -71 10 -154 4 -82 9 -175
11 -205 9 -119 22 -280 30 -352 3 -27 7 -69 10 -95 7 -75 16 -156 20 -183 2
-14 7 -54 10 -90 4 -36 9 -68 11 -71 2 -4 -11 -14 -29 -23 -17 -8 -68 -38
-112 -65 -44 -28 -93 -58 -109 -67 -58 -33 -358 -257 -412 -309 -6 -5 -44 -39
-85 -75 -75 -65 -350 -338 -404 -400 -26 -31 -184 -229 -203 -255 -52 -71 -82
-116 -82 -121 0 -3 -14 -25 -30 -50 -49 -71 -164 -300 -207 -414 -40 -104 -77
-233 -88 -300 -3 -19 -9 -60 -14 -90 -14 -86 -11 -297 6 -385 61 -323 282
-563 605 -656 81 -23 313 -34 403 -19 28 5 66 11 87 15 268 45 543 254 716
545 127 212 199 417 278 785 6 29 32 211 39 270 3 28 7 70 10 95 38 316 38
787 0 1251 l-6 67 68 33 c64 31 296 128 299 125 1 0 4 -22 7 -48 8 -67 59
-208 98 -274 72 -119 192 -208 334 -250 84 -24 242 -24 315 1 164 54 294 148
407 292 l41 52 18 -37 c77 -164 211 -277 387 -327 57 -16 225 -23 277 -11 14
4 37 8 53 11 151 28 311 167 413 360 70 133 142 401 144 539 0 29 1 28 68 -36
158 -152 319 -221 506 -217 124 3 197 26 307 100 113 76 215 220 226 322 9 81
-56 168 -136 182 -82 14 -152 -29 -198 -120 -31 -61 -91 -119 -140 -136 -54
-17 -165 -5 -228 25 -180 89 -349 366 -426 701 -21 95 -60 151 -122 174 -39
15 -113 5 -147 -19 -56 -40 -75 -78 -75 -150 1 -63 13 -189 21 -201 24 -40 24
-608 0 -680 -3 -8 -7 -33 -10 -57 -18 -142 -84 -297 -160 -376 -57 -58 -90
-73 -186 -85 -171 -20 -291 83 -345 294 -21 80 -26 299 -11 495 31 415 31 460
8 507 -32 62 -73 89 -137 92 -99 4 -169 -54 -180 -149 -3 -30 -8 -68 -10 -85
-2 -16 -7 -79 -10 -140 -3 -60 -8 -126 -10 -145 -2 -19 -7 -73 -10 -120 -16
-229 -32 -303 -96 -435 -36 -74 -53 -99 -113 -165 -111 -122 -281 -169 -397
-110 -127 65 -168 207 -145 507 15 201 98 455 189 581 87 120 93 199 22 275
-67 71 -178 73 -238 3 -10 -12 -26 -30 -36 -41 -110 -128 -216 -390 -257 -635
-2 -14 -6 -36 -8 -50 -3 -14 -5 -38 -5 -53 -1 -26 -4 -28 -33 -24 -52 6 -76
-2 -268 -83 -63 -27 -115 -48 -116 -47 -1 1 -5 31 -9 67 -3 36 -8 79 -10 95
-2 17 -6 55 -10 85 -3 30 -8 71 -10 90 -3 31 -10 104 -21 240 -14 169 -19 347
-18 635 l0 330 60 125 c124 256 177 428 177 575 0 69 -4 100 -20 135 -71 158
-241 195 -354 77 -74 -77 -138 -273 -164 -502 -4 -33 -9 -67 -10 -76 -2 -8 -6
-55 -10 -105 -9 -123 -12 -139 -35 -176 -11 -18 -29 -50 -40 -72 -12 -21 -41
-69 -66 -107 -24 -38 -44 -72 -44 -75 0 -2 -5 -10 -10 -17 -6 -7 -49 -70 -97
-142 -78 -119 -280 -394 -332 -455 -12 -14 -43 -50 -69 -80 -60 -70 -201 -217
-271 -284 -30 -28 -63 -60 -75 -71 -324 -311 -817 -600 -1226 -719 -112 -33
-285 -71 -365 -80 -233 -28 -534 -28 -673 -1 -11 2 -37 6 -58 9 -72 12 -199
49 -279 83 -394 165 -639 516 -700 1003 -13 107 -15 153 -16 287 0 129 5 232
17 323 13 98 17 123 39 227 60 283 204 642 358 895 23 38 47 77 52 86 59 101
239 336 348 456 383 418 777 704 1282 931 190 85 466 171 680 210 50 10 97 18
105 20 8 2 47 6 85 10 39 4 84 9 100 11 41 5 347 5 415 0 284 -22 517 -80 735
-186 316 -153 545 -378 692 -680 100 -206 133 -327 169 -604 11 -87 59 -146
136 -167 110 -29 213 65 203 186 -22 255 -89 502 -196 720 -41 84 -139 248
-159 265 -3 3 -32 40 -64 83 -294 387 -810 648 -1411 713 -60 7 -510 15 -516
10z m1412 -4983 c0 -27 3 -75 6 -108 8 -97 8 -620 0 -745 -13 -201 -25 -310
-42 -400 -3 -14 -7 -45 -10 -70 -18 -148 -105 -438 -176 -588 -79 -168 -203
-328 -324 -420 -46 -35 -163 -89 -235 -109 -99 -26 -285 -23 -370 6 -150 51
-248 148 -312 306 -30 76 -36 248 -13 391 16 100 69 291 86 309 5 5 9 15 9 23
0 14 85 189 122 251 214 360 557 727 932 997 115 83 300 203 314 204 8 0 12
-16 13 -47z"/>
</g>
</svg>
